# xmcd
#
# Track frame offsets:
#	150
#	15171
#	34769
#	49817
#	65170
#	84670
#	100228
#	114653
#	127734
#	145322
#	159758
#	172476
#
# Disc length: 2480 seconds
#
# Revision: 1
# Processed by: cddbd v1.5.2PL0 Copyright (c) Steve Scherf et al.
# Submitted via: audiograbber 1.81.03
#
DISCID=9d09ae0c
DTITLE=Grant`Lyle - Retronym
DYEAR=2006
DGENRE=Blues
TTITLE0=Fare You Well
TTITLE1=Have A Little Faith
TTITLE2=Can't Be Satisfied
TTITLE3=Look What All You Got
TTITLE4=Mellow Down Easy
TTITLE5=Survive
TTITLE6=Broke Down Engine
TTITLE7=I Got Loaded
TTITLE8=Come Alive
TTITLE9=Honey Bee
TTITLE10=Don't Go No Further
TTITLE11=Come Rain Or Come Shine
EXTD=
EXTT0=
EXTT1=
EXTT2=
EXTT3=
EXTT4=
EXTT5=
EXTT6=
EXTT7=
EXTT8=
EXTT9=
EXTT10=
EXTT11=
PLAYORDER=
